<svg xmlns="http://www.w3.org/2000/svg" data-name="Layer 1" viewBox="0 0 512 512"><defs><clipPath id="a"><rect width="429.12" height="285.185" x="41.44" y="153.928" fill="none"/></clipPath></defs><rect width="429.12" height="285.185" x="41.44" y="153.928" fill="#c9effb"/><rect width="429.12" height="285.185" x="41.44" y="153.928" fill="#c9effb"/><g clip-path="url(#a)"><rect width="365.76" height="55.977" x="-26.832" y="162.613" fill="none" stroke="#87dbf6" stroke-miterlimit="10" stroke-width="3" transform="rotate(-22.383 156.048 190.602)"/><rect width="75.6" height="254.16" x="299.81" y="32.645" fill="none" stroke="#87dbf6" stroke-miterlimit="10" stroke-width="3" transform="rotate(-22.383 337.61 159.725)"/><rect width="189.454" height="26.72" x="284.321" y="216.857" fill="none" stroke="#87dbf6" stroke-miterlimit="10" stroke-width="3" transform="rotate(-22.383 379.048 230.217)"/><rect width="52.589" height="75.45" x="135.096" y="255.779" fill="none" stroke="#87dbf6" stroke-miterlimit="10" stroke-width="3" transform="rotate(-22.383 161.39 293.504)"/><rect width="135.709" height="95.04" x="187.828" y="409.135" fill="none" stroke="#87dbf6" stroke-miterlimit="10" stroke-width="3" transform="rotate(-22.383 255.682 456.655)"/><rect width="44.28" height="215.32" x="77.554" y="354.035" fill="none" stroke="#87dbf6" stroke-miterlimit="10" stroke-width="3" transform="rotate(-22.383 99.694 461.695)"/><rect width="299.794" height="52.92" x="257.045" y="396.517" fill="none" stroke="#87dbf6" stroke-miterlimit="10" stroke-width="3" transform="rotate(-22.383 406.942 422.977)"/><rect width="44.214" height="126.36" x="183.098" y="87.807" fill="none" stroke="#87dbf6" stroke-miterlimit="10" stroke-width="3" transform="rotate(-22.383 205.205 150.987)"/><rect width="57.24" height="149.025" x="462.061" y="270.187" fill="none" stroke="#87dbf6" stroke-miterlimit="10" stroke-width="3" transform="rotate(-22.383 490.68 344.7)"/><rect width="61.047" height="103.68" x="264.941" y="304.335" fill="none" stroke="#87dbf6" stroke-miterlimit="10" stroke-width="3" transform="rotate(-22.383 295.465 356.175)"/><rect width="73" height="64.262" x="185.428" y="283.093" fill="none" stroke="#87dbf6" stroke-miterlimit="10" stroke-width="3" transform="rotate(-22.383 221.928 315.224)"/><rect width="32.4" height="77.771" x="2.609" y="162.59" fill="none" stroke="#fff" stroke-miterlimit="10" stroke-width="1.074" transform="rotate(-22.383 18.809 201.476)"/></g><path fill="#b86a55" d="M246.88046,269.98132c24.41707-4.25612,42.48961-32.54495,42.48961-32.54495s-24.21517-1.99376-39.3595-6.40605H220.90783v36.61877a27.33973,27.33973,0,0,1-.73756,6.276l-.00068.03828S222.46309,274.23744,246.88046,269.98132Z"/><g clip-path="url(#a)"><path fill="#ed9a72" d="M450.63508,513.6953h-389.27l2.54993-11.92c18.67-93.34,35.12-146.48,35.12-146.48,4.78-28.68,26.88-37.94,26.88-37.94l75.76-23.58a27.3375,27.3375,0,0,0,7.82995-3.9l.31006-.23a27.316,27.316,0,0,0,10.35-15.68l.01-.04c.05993-.26.12-.52.17-.79.05-.25.1-.5.13989-.75.04-.2.07007-.39.1001-.59l.06006-.39c.02991-.19.04993-.38.06994-.57.02991-.27.05994-.53.08-.79q.045-.39.06006-.78v-.04c.02-.22.03-.43.03-.65.01-.31.02-.62.02-.93v-36.62h68.47v36.62a27.34276,27.34276,0,0,0,11.09,22,5.73188,5.73188,0,0,0,.5.36c.22.16.45.32.68006.46a.17372.17372,0,0,0,.04993.04c.28991.19.59.38.89.56.29.18.59.35.88989.52a27.22606,27.22606,0,0,0,5.13013,2.19l75.76,23.58c21.29,9.86,28.87988,37.94,28.87988,37.94h.11011s16.45,53.14,35.11987,146.48Z"/><path fill="#f37041" d="M387.49494,505.50529l.51,8.19H124.38508l.51-8.19-60.9801-3.73c18.67-93.34,35.12-146.48,35.12-146.48,4.78-28.68,26.88-37.94,26.88-37.94l75.76-23.58a27.3375,27.3375,0,0,0,7.82995-3.9l.31006-.23s43.86,56.51,90.65,0a5.73188,5.73188,0,0,0,.5.36,7.36132,7.36132,0,0,0,.68006.46.17372.17372,0,0,0,.04993.04c.28991.2.59.39.89.56.29.18.59.36.88989.52a27.22606,27.22606,0,0,0,5.13013,2.19l75.76,23.58c21.29,9.86,28.87988,37.94,28.87988,37.94h.11011s16.45,53.14,35.11987,146.48Z"/><path fill="#b86a55" d="M246.88046,269.98132c24.41707-4.25612,42.48961-32.54495,42.48961-32.54495s-24.21517-1.99376-39.3595-6.40605H220.90783v36.61877a27.33973,27.33973,0,0,1-.73756,6.276l-.00068.03828S222.46309,274.23744,246.88046,269.98132Z"/></g><path fill="#e9966e" d="M313.22487,152.91717a10.631,10.631,0,0,0-4.55084.10543c-5.31012-36.6613-27.3433-64.1547-53.72922-64.1547-26.45944,0-48.54549,27.6444-53.77707,64.45884a10.82815,10.82815,0,0,0-5.54863-.40957c-8.17042,1.6243-12.83808,12.77807-10.42563,24.91232,2.328,11.70979,10.39813,20.02484,18.30239,19.1346,7.75872,28.737,18.198,50.83277,38.2073,54.54612,5.3786.99816,10.15751-2.16862,14.43628-2.16862,4.23365,0,9.3509,3.63927,12.89542,2.36321,21.45944-7.72561,30.28834-26.04109,37.59709-54.67447,7.47707-.08781,14.8168-8.12545,17.01869-19.20084C326.0631,165.69524,321.39529,154.54147,313.22487,152.91717Z"/><path fill="#38101b" d="M228.66074 169.66136c4.80468 0 4.81264-7.467 0-7.467-4.80469 0-4.81264 7.467 0 7.467zM279.43662 169.66136c4.80469 0 4.81265-7.467 0-7.467-4.80468 0-4.81264 7.467 0 7.467zM212.88274 157.83355a37.29219 37.29219 0 017.64978-3.40442c1.29993-.43267 2.61108-.80529 3.92895-1.14142l1.93409-.46765q.88367-.20334 1.74719-.47656a34.17062 34.17062 0 006.72388-2.87805c.55-.30145 1.089-.62946 1.637-.96356.5686-.36322 1.16662-.73352 1.76367-1.08356a28.89627 28.89627 0 013.808-1.89 28.88606 28.88606 0 01-2.13574 3.67578c-.39453.57629-.78357 1.13757-1.21069 1.69647a16.63586 16.63586 0 01-1.47107 1.66388 18.53116 18.53116 0 01-7.672 4.54181c-.72595.20208-1.456.39239-2.19836.52124-.76575.12451-1.36878.20984-2.0658.29138-1.35071.15948-2.70813.28247-4.07678.3454A37.29311 37.29311 0 01212.88274 157.83355zM264.45012 143.3717a37.29026 37.29026 0 017.73267-3.21161c1.31042-.4 2.63049-.73962 3.95642-1.0426.684-.15711 1.28052-.27905 2.0437-.4187.74255-.12769 1.49414-.19336 2.24585-.24659a18.53147 18.53147 0 018.75122 1.70417 16.65391 16.65391 0 011.94409 1.07379c.58985.38318 1.14466.78137 1.70972 1.19195a28.87855 28.87855 0 013.24524 2.746 28.87505 28.87505 0 01-4.22132-.50269c-.67993-.12933-1.36755-.27759-2.025-.429-.62842-.1308-1.24609-.259-1.86536-.3584a34.174 34.174 0 00-7.2998-.45508q-.90437.03378-1.80579.13739l-1.97888.20837c-1.35425.12561-2.71435.21454-4.08423.24317A37.29659 37.29659 0 01264.45012 143.3717z"/><ellipse cx="314.366" cy="174.292" fill="#b86a55" rx="13.036" ry="5.233" transform="rotate(-82.718 314.366 174.292)"/><ellipse cx="195.416" cy="174.292" fill="#b86a55" rx="5.233" ry="13.036" transform="rotate(-7.282 195.416 174.292)"/><path fill="#b86a55" d="M201.16777 153.32672c.37964 3.66443.60108 7.30731.77918 10.9469l.46814 10.89941c.03723 1.81592.13257 3.6275.20093 5.44043l.22229 5.43719c.18 3.62555.36181 7.24128.65759 10.91346a51.8656 51.8656 0 01-2.59094-10.72675 101.94126 101.94126 0 01-.97571-10.9715c-.11926-3.66638-.11572-7.33258.08288-10.9931A87.41421 87.41421 0 01201.16777 153.32672zM308.98333 153.32672a87.43671 87.43671 0 011.15563 10.946c.19849 3.66052.202 7.32672.08277 10.9931a101.91039 101.91039 0 01-.97559 10.9715 51.86624 51.86624 0 01-2.59094 10.72675c.29565-3.67218.47754-7.28791.65759-10.91346l.22217-5.43719c.06836-1.81293.16382-3.62451.20105-5.44043l.46814-10.89941C308.38225 160.634 308.60356 156.99115 308.98333 153.32672z"/><path fill="#38101b" d="M273.08965 165.92785a6.6503 6.6503 0 012.20837-3.42657 6.23181 6.23181 0 014.12293-1.4906 6.59661 6.59661 0 014.06115 1.57953 10.95246 10.95246 0 011.394 1.52209 11.7814 11.7814 0 01.90747 1.81555 14.74138 14.74138 0 01-1.73071-.91235c-.57154-.25238-1.09229-.55615-1.62073-.77362a8.35045 8.35045 0 00-3.052-.74329 7.138 7.138 0 00-3.0387.65045A24.3178 24.3178 0 00273.08965 165.92785zM222.31377 165.92785a6.65037 6.65037 0 012.20837-3.42657 6.23181 6.23181 0 014.12293-1.4906 6.59666 6.59666 0 014.06116 1.57953 10.953 10.953 0 011.394 1.52209 11.7814 11.7814 0 01.90747 1.81555 14.74138 14.74138 0 01-1.73071-.91235c-.57154-.25238-1.09229-.55615-1.62073-.77362a8.35045 8.35045 0 00-3.052-.74329 7.138 7.138 0 00-3.0387.65045A24.3178 24.3178 0 00222.31377 165.92785z"/><path fill="#c15856" d="M240.64762,219.15593c-3.89224-3.28871-1.517-11.00649,1.5681-15.45679.80759-1.16509,4.67358-6.40469,11.20056-6.72033,6.61357-.31983,10.96509,4.6574,12.76865,6.72033,1.2202,1.39574,6.64244,7.59777,4.9282,12.54465-1.53707,4.43511-8.69231,3.55221-15.83471,4.0322C249.27371,220.67952,243.33583,221.4273,240.64762,219.15593Z"/><path fill="#d7645d" d="M271.11313,216.24379c1.40311-4.04936-1.97432-8.938-3.91582-11.34481-4.60279.01178-9.87189,3.66417-12.43687,7.98463-.48583.81856-2.46075,4.1631-2.20857,7.58834.90026-.06555,1.81207-.13452,2.72661-.196C262.42072,219.796,269.576,220.6789,271.11313,216.24379Z"/><path fill="#350313" d="M255.0324,192.70642a8.02018,8.02018,0,0,1-.18054,3.1969,11.77669,11.77669,0,0,1-1.183,3.00866,15.06111,15.06111,0,0,1-4.45349,4.85486,17.85476,17.85476,0,0,1-6.04053,2.70886c-.52929.13117-1.06482.24018-1.60168.35041-.35352.098-.6676.16082-1.00147.23834-.655.10437-1.33081.34338-2.00317.47284-2.7019.72864-5.57153,1.56488-8.64478,2.4953-1.55944.43121-3.13732.92718-4.80236,1.4079-.436.10742-.83618.24487-1.26148.37024-.44641.11584-.845.26092-1.28772.3908-.45422.13715-.84326.27979-1.31323.44513-.20911.0752-.42322.16413-.65222.27021a3.41491,3.41491,0,0,0-.62952.41027,2.29891,2.29891,0,0,1-.16638-.81836c-.00146-.26928.006-.55993.0293-.85675a9.87171,9.87171,0,0,1,.35949-1.58789,14.926,14.926,0,0,1,1.24549-2.88781,20.95492,20.95492,0,0,1,3.70251-4.79487,23.723,23.723,0,0,1,10.57984-5.94049,23.26882,23.26882,0,0,1,3.16186-.55212c.536-.04364,1.09168-.102,1.60791-.12512.333-.01019.66736-.02161,1.00794-.01081a37.894,37.894,0,0,0,4.05285-.195A25.38607,25.38607,0,0,0,255.0324,192.70642Z"/><path fill="#350313" d="M253.91631,192.70642a25.38728,25.38728,0,0,0,9.47436,2.8515,37.89578,37.89578,0,0,0,4.05286.195c.34058-.0108.67493.00062,1.00793.01081.51636.02313,1.072.08148,1.60792.12512a23.2738,23.2738,0,0,1,3.162.55212,23.7225,23.7225,0,0,1,10.57971,5.94049,20.95468,20.95468,0,0,1,3.70252,4.79487,14.92662,14.92662,0,0,1,1.24548,2.88781,9.8589,9.8589,0,0,1,.3595,1.58789c.02344.29682.03088.58747.02942.85675a2.30152,2.30152,0,0,1-.16638.81836,3.41546,3.41546,0,0,0-.62964-.41027c-.229-.10608-.443-.195-.65222-.27021-.47-.16534-.859-.308-1.31311-.44513-.44275-.12988-.84143-.275-1.28772-.3908-.42542-.12537-.82557-.26282-1.2616-.37024-1.66492-.48072-3.2428-.97669-4.80237-1.4079-3.07324-.93042-5.94287-1.76666-8.64477-2.4953-.67225-.12946-1.34815-.36847-2.00318-.47284-.33374-.07752-.648-.14038-1.00146-.23834-.53687-.11023-1.07239-.21924-1.60169-.35041a17.85422,17.85422,0,0,1-6.0404-2.70886,15.06029,15.06029,0,0,1-4.45362-4.85486,11.78581,11.78581,0,0,1-1.183-3.00866A8.02219,8.02219,0,0,1,253.91631,192.70642Z"/><path fill="#b86a55" d="M266.90444,191.16644a20.76281,20.76281,0,0,1-12.68153,6.07319c.14934.02489.29868.03734.448.04978h-.89605c.14934-.01244.29868-.02489.448-.04978a20.69943,20.69943,0,0,1-12.51974-5.899Z"/><path fill="#350313" d="M207.61977 138.71846s-5.49008-6.55728-5.91687-18.459c0 0-8.38637 10.55989-5.36208 31.54281s5.52639 27.83157 5.52639 27.83157S202.724 141.60079 207.61977 138.71846zM295.42 124.92821s8.69653 10.99848 10.86864 19.06139.3122 35.12637 1.2919 38.90324c0 0 11.63679-18.74847 10.66592-40.82839 0 0 .57016-19.88519-15.99409-30.90629A20.15791 20.15791 0 01295.42 124.92821z"/><path fill="#38101b" d="M223.98928,149.74875s-18.92439-1.78255-20.95874-26.40831,37.76824-57.04031,77.32-38.51852,18.042,58.36488-19.06959,43.9667S202.97,131.49876,223.98928,149.74875Z"/></svg>